<svg width="13" height="14" viewBox="0 0 13 14" fill="none" xmlns="http://www.w3.org/2000/svg">
<path d="M6.58905 1.19012C6.41642 1.18993 6.25081 1.25842 6.12874 1.38048C6.00668 1.50255 5.93819 1.66816 5.93838 1.84079L5.93377 6.34932L1.42062 6.34932C1.24799 6.34913 1.08238 6.41762 0.960313 6.53969C0.838247 6.66175 0.769757 6.82737 0.769952 6.99999C0.769952 7.35994 1.06068 7.65066 1.42062 7.65066L5.93377 7.65066L5.93377 12.1638C5.93377 12.5238 6.22449 12.8145 6.58444 12.8145C6.94438 12.8145 7.23511 12.5238 7.2351 12.1638L7.23511 7.65066L11.7483 7.65066C12.1082 7.65066 12.3989 7.35994 12.3989 6.99999C12.3989 6.64005 12.1082 6.34932 11.7483 6.34932H7.23511L7.23511 1.83618C7.23511 1.48546 6.93977 1.19012 6.58905 1.19012Z" fill="url(#paint0_linear_1_7892)" stroke="#1B59F8" stroke-width="0.5"/>
<defs>
<linearGradient id="paint0_linear_1_7892" x1="4.59277" y1="9.9109" x2="6.62821" y2="2.6227" gradientUnits="userSpaceOnUse">
<stop stop-color="#1B59F8"/>
<stop offset="1" stop-color="#4B7DFD"/>
</linearGradient>
</defs>
</svg>
