<svg width="19" height="4" viewBox="0 0 19 4" fill="none" xmlns="http://www.w3.org/2000/svg">
<path fill-rule="evenodd" clip-rule="evenodd" d="M9.87524 -6.10352e-05C8.77068 -6.10352e-05 7.87525 0.895369 7.87525 1.99994C7.87525 3.10451 8.77068 3.99994 9.87524 3.99994C10.9798 3.99994 11.8752 3.10451 11.8752 1.99994C11.8752 0.895369 10.9798 -6.10352e-05 9.87524 -6.10352e-05ZM2.87524 -6.10352e-05C1.77067 -6.10352e-05 0.875244 0.895369 0.875244 1.99994C0.875244 3.10451 1.77067 3.99994 2.87524 3.99994C3.97981 3.99994 4.87524 3.10451 4.87524 1.99994C4.87524 0.895369 3.97981 -6.10352e-05 2.87524 -6.10352e-05ZM16.8752 -6.10352e-05C15.7707 -6.10352e-05 14.8752 0.895369 14.8752 1.99994C14.8752 3.10451 15.7707 3.99994 16.8752 3.99994C17.9798 3.99994 18.8752 3.10451 18.8752 1.99994C18.8752 0.895369 17.9798 -6.10352e-05 16.8752 -6.10352e-05Z" fill="white"/>
</svg>
